<svg xmlns="http://www.w3.org/2000/svg" xmlns:xlink="http://www.w3.org/1999/xlink" width="389.714" height="436.26" viewBox="0 0 389.714 436.26">
  <defs>
    <clipPath id="clip-path">
      <rect width="291.742" height="436.26" fill="none"/>
    </clipPath>
    <clipPath id="clip-path-2">
      <rect width="389.714" height="383.951" fill="none"/>
    </clipPath>
    <linearGradient id="linear-gradient" y1="1.089" x2="1" y2="1.089" gradientUnits="objectBoundingBox">
      <stop offset="0" stop-color="#6ebf7c"/>
      <stop offset="0.27" stop-color="#6ebf7c"/>
      <stop offset="1" stop-color="#beffc9"/>
    </linearGradient>
  </defs>
  <g id="Group_1544" data-name="Group 1544" transform="translate(-1530.445 -503.752)">
    <g id="Scroll_Group_6" data-name="Scroll Group 6" transform="translate(1628.396 503.752)" clip-path="url(#clip-path)" style="isolation: isolate">
      <path id="Shape_15_copy_4" data-name="Shape 15 copy 4" d="M-8.621,858.028-354.738,511.912a25.072,25.072,0,0,1-.015-35.353h0a25.072,25.072,0,0,1,35.352.015L-120.493,675.48a25.076,25.076,0,0,0,33.262-1.845h0a25.074,25.074,0,0,0-.014-35.354L-347.259,378.267a25.071,25.071,0,0,1-.014-35.352h0a25.072,25.072,0,0,1,35.352.014l42.06,42.061a24.988,24.988,0,0,0,35.338.146,24.988,24.988,0,0,0,.146-35.338l-.144-.144L-340.472,243.7a25.071,25.071,0,0,1-.014-35.352h0a25.072,25.072,0,0,1,35.352.015L153.406,666.9a25.074,25.074,0,0,1,.015,35.355h0a25.069,25.069,0,0,1-35.352-.016L-94.4,489.776a25.071,25.071,0,0,0-35.35-.012,25.073,25.073,0,0,0,.013,35.352L41.025,695.876a25.074,25.074,0,0,1,.014,35.354h0a25.074,25.074,0,0,1-35.353-.016L-27.57,697.958a25.07,25.07,0,0,0-35.353-.016h0A25.078,25.078,0,0,0-64.77,731.2L26.717,822.69a25.074,25.074,0,0,1,.015,35.354h0A25.07,25.07,0,0,1-8.621,858.028Z" transform="translate(364.036 -199.068)" fill="#fff" stroke="#26404d" stroke-width="4" fill-rule="evenodd"/>
    </g>
    <g id="Scroll_Group_5" data-name="Scroll Group 5" transform="translate(1530.445 556)" clip-path="url(#clip-path-2)" style="isolation: isolate">
      <path id="Shape_15_copy_4-2" data-name="Shape 15 copy 4" d="M-177.5,209.025,199.723,586.243a27.324,27.324,0,0,1,.016,38.529h0a27.324,27.324,0,0,1-38.529-.016L-55.571,407.977a27.329,27.329,0,0,0-36.251,2.01h0a27.327,27.327,0,0,0,.016,38.531L191.572,731.9a27.324,27.324,0,0,1,.016,38.529h0a27.325,27.325,0,0,1-38.529-.016L107.22,724.569a27.233,27.233,0,0,0-38.672,38.355l.157.157,115.471,115.47a27.325,27.325,0,0,1,.016,38.529h0a27.324,27.324,0,0,1-38.529-.016L-354.082,417.322a27.327,27.327,0,0,1-.016-38.532h0a27.322,27.322,0,0,1,38.529.018l231.561,231.56a27.324,27.324,0,0,0,38.526.013,27.326,27.326,0,0,0-.014-38.529L-231.6,385.748a27.327,27.327,0,0,1-.016-38.531h0a27.327,27.327,0,0,1,38.529.018l36.246,36.245a27.323,27.323,0,0,0,38.529.018h0a27.331,27.331,0,0,0,2.013-36.249l-99.708-99.709a27.327,27.327,0,0,1-.016-38.531h0A27.322,27.322,0,0,1-177.5,209.025Z" transform="translate(362.036 -201.068)" fill-rule="evenodd" fill="url(#linear-gradient)"/>
    </g>
  </g>
</svg>
