<svg xmlns="http://www.w3.org/2000/svg" xmlns:xlink="http://www.w3.org/1999/xlink" width="384.375" height="469.728" viewBox="0 0 384.375 469.728">
  <defs>
    <clipPath id="clip-path">
      <rect x="138" y="254" width="384.375" height="408.713" fill="none"/>
    </clipPath>
    <clipPath id="clip-path-2">
      <rect x="266" y="243" width="294.883" height="469.728" fill="none"/>
    </clipPath>
    <linearGradient id="linear-gradient" y1="1.089" x2="1" y2="1.089" gradientUnits="objectBoundingBox">
      <stop offset="0" stop-color="#527bcc"/>
      <stop offset="0.27" stop-color="#527bcc"/>
      <stop offset="1" stop-color="#98bbff"/>
    </linearGradient>
  </defs>
  <g id="Group_1543" data-name="Group 1543" transform="translate(0.482 -0.271)">
    <g id="Scroll_Group_2" data-name="Scroll Group 2" transform="translate(-138.482 -253.713)" clip-path="url(#clip-path)" style="isolation: isolate">
      <path id="Shape_15_copy_4" data-name="Shape 15 copy 4" d="M-11.573,852.542-354.8,509.316a24.862,24.862,0,0,1-.014-35.057h0a24.862,24.862,0,0,1,35.057.015l197.246,197.245a24.867,24.867,0,0,0,32.984-1.829h0a24.865,24.865,0,0,0-.014-35.059L-347.382,376.788a24.862,24.862,0,0,1-.014-35.057h0a24.862,24.862,0,0,1,35.057.014l41.708,41.71a24.779,24.779,0,0,0,35.042.145,24.78,24.78,0,0,0,.145-35.043l-.143-.143L-340.652,243.349a24.862,24.862,0,0,1-.014-35.057h0a24.862,24.862,0,0,1,35.057.015L149.1,663.015a24.865,24.865,0,0,1,.014,35.059h0a24.86,24.86,0,0,1-35.057-.016L-96.636,487.365a24.862,24.862,0,0,0-35.054-.012,24.864,24.864,0,0,0,.013,35.057L37.658,691.744a24.865,24.865,0,0,1,.014,35.059h0a24.864,24.864,0,0,1-35.057-.016l-32.98-32.978a24.861,24.861,0,0,0-35.057-.016h0a24.868,24.868,0,0,0-1.832,32.982L23.47,817.5a24.864,24.864,0,0,1,.015,35.059h0A24.86,24.86,0,0,1-11.573,852.542Z" transform="translate(364.036 -199.068)" fill="#fff" stroke="#26404d" stroke-width="4" fill-rule="evenodd"/>
    </g>
    <g id="Scroll_Group_1" data-name="Scroll Group 1" transform="translate(-265.559 -242.729)" clip-path="url(#clip-path-2)" style="isolation: isolate">
      <path id="Shape_15_copy_4-2" data-name="Shape 15 copy 4" d="M-180.356,208.9,191.015,580.272a26.9,26.9,0,0,1,.016,37.932h0a26.9,26.9,0,0,1-37.932-.016L-60.321,404.769a26.906,26.906,0,0,0-35.689,1.979h0a26.9,26.9,0,0,0,.016,37.934L182.991,723.668a26.9,26.9,0,0,1,.016,37.932h0a26.9,26.9,0,0,1-37.932-.016l-45.129-45.13a26.811,26.811,0,0,0-38.073,37.76l.155.155,113.681,113.68a26.9,26.9,0,0,1,.016,37.932h0a26.9,26.9,0,0,1-37.932-.016l-492-492a26.9,26.9,0,0,1-.016-37.934h0a26.9,26.9,0,0,1,37.932.017l227.972,227.97a26.9,26.9,0,0,0,37.929.013A26.9,26.9,0,0,0-50.4,566.1L-233.624,382.885a26.9,26.9,0,0,1-.016-37.934h0a26.9,26.9,0,0,1,37.932.017l35.684,35.683a26.9,26.9,0,0,0,37.932.017h0a26.907,26.907,0,0,0,1.982-35.687l-98.162-98.163a26.9,26.9,0,0,1-.016-37.934h0A26.9,26.9,0,0,1-180.356,208.9Z" transform="translate(362.037 -201.068)" fill-rule="evenodd" fill="url(#linear-gradient)"/>
    </g>
  </g>
</svg>
